<svg xmlns="http://www.w3.org/2000/svg" viewBox="0 0 691.12 145.29"><defs><style>.cls-1{fill:#636;}</style></defs><g id="LOGO_2" data-name="LOGO 2"><path class="cls-1" d="M101.31,143.31,80.94,35.69,60.57,143.31H23.25L0,2.34H30.46L44,103.47,62.91,2.34H99.15l18.92,101.13L131.59,2.34h30.47l-23.26,141Z"/><path class="cls-1" d="M205.68,2.34V143h-29.2V2.34Z"/><path class="cls-1" d="M307.71,143H226.59V2.34h29.2V117.71h51.92Z"/><path class="cls-1" d="M401.62,143H320.51V2.34h29.2V117.71h51.91Z"/><path class="cls-1" d="M464.9,145.29q-27.22,0-40.38-16.31T411.36,76.25V69q0-36.59,13.16-52.82T464.9,0q27.39,0,40.56,16.22T518.61,69v7.21q0,36.42-13.15,52.73T464.9,145.29Zm-.73-25.23h1.63q13.51,0,18.29-11.36t4.78-32.45V69q0-21.09-4.78-32.45T465.8,25.24h-1.63q-13.51,0-18.38,11.35T440.92,69v7.21q0,21.09,4.87,32.45T464.17,120.06Z"/><path class="cls-1" d="M630.38,143.31,610,35.69,589.64,143.31H552.32l-23.25-141h30.46l13.52,101.13L592,2.34h36.23l18.93,101.13L660.66,2.34h30.46l-23.25,141Z"/></g></svg>