<svg xmlns="http://www.w3.org/2000/svg" viewBox="0 0 1315.58 628.43"><defs><style>.cls-1{fill:none;stroke:#fce187;stroke-linecap:round;stroke-linejoin:round;stroke-width:35px;}.cls-2{fill:#fce187;}</style></defs><g id="LOGO_2" data-name="LOGO 2"><path class="cls-1" d="M376.31,418.79V265.28a98.12,98.12,0,0,0-98.19-98.19h.13a98.13,98.13,0,0,0-98.19,98.19V418.79"/><path class="cls-1" d="M458.49,496.68V269.57A180.27,180.27,0,0,0,278.12,89.19h.14A180.28,180.28,0,0,0,97.88,269.57V496.68"/><path class="cls-1" d="M538.87,568.38V278.25c0-144.12-116.62-260.75-260.75-260.75h.13C134.13,17.5,17.5,134.13,17.5,278.25V568.38"/><line class="cls-1" x1="278.19" y1="270.54" x2="278.19" y2="610.93"/><path class="cls-2" d="M725.76,417.49,705.39,309.88,685,417.49H647.71l-23.26-141h30.47l13.52,101.13,18.92-101.13H723.6l18.93,101.13L756,276.53h30.47l-23.25,141Z"/><path class="cls-2" d="M830.13,276.53v140.6h-29.2V276.53Z"/><path class="cls-2" d="M932.16,417.13H851V276.53h29.2V391.9h51.92Z"/><path class="cls-2" d="M1026.08,417.13H945V276.53h29.2V391.9h51.92Z"/><path class="cls-2" d="M1089.35,419.48q-27.22,0-40.38-16.32t-13.16-52.73v-7.21q0-36.59,13.16-52.81t40.38-16.23q27.39,0,40.56,16.23t13.16,52.81v7.21q0,36.42-13.16,52.73T1089.35,419.48Zm-.72-25.24h1.62q13.51,0,18.3-11.36t4.77-32.45v-7.21q0-21.09-4.77-32.44t-18.3-11.36h-1.62q-13.53,0-18.39,11.36t-4.87,32.44v7.21q0,21.09,4.87,32.45T1088.63,394.24Z"/><path class="cls-2" d="M1254.83,417.49l-20.37-107.61-20.37,107.61h-37.32l-23.25-141H1184l13.52,101.13,18.93-101.13h36.24l18.92,101.13,13.52-101.13h30.47l-23.26,141Z"/></g></svg>