<svg xmlns="http://www.w3.org/2000/svg" viewBox="0 0 691.12 839.9"><defs><style>.cls-1{fill:none;stroke:#fce187;stroke-linecap:round;stroke-linejoin:round;stroke-width:35px;}.cls-2{fill:#fce187;}</style></defs><g id="LOGO_2" data-name="LOGO 2"><path class="cls-1" d="M443.6,418.79V265.28a98.13,98.13,0,0,0-98.2-98.19h.13a98.13,98.13,0,0,0-98.19,98.19V418.79"/><path class="cls-1" d="M525.77,496.68V269.57A180.27,180.27,0,0,0,345.4,89.19h.14A180.28,180.28,0,0,0,165.16,269.57V496.68"/><path class="cls-1" d="M606.15,568.38V278.25C606.15,134.13,489.53,17.5,345.4,17.5h.14C201.41,17.5,84.78,134.13,84.78,278.25V568.38"/><line class="cls-1" x1="345.47" y1="270.54" x2="345.47" y2="610.93"/><path class="cls-2" d="M101.31,837.92,80.94,730.3,60.57,837.92H23.25L0,697H30.46L44,798.08,62.91,697H99.15l18.92,101.13L131.59,697h30.47l-23.26,141Z"/><path class="cls-2" d="M205.68,697V837.56h-29.2V697Z"/><path class="cls-2" d="M307.71,837.56H226.59V697h29.2V812.32h51.92Z"/><path class="cls-2" d="M401.62,837.56H320.51V697h29.2V812.32h51.91Z"/><path class="cls-2" d="M464.9,839.9q-27.22,0-40.38-16.31t-13.16-52.73v-7.21q0-36.6,13.16-52.82t40.38-16.22q27.39,0,40.56,16.22t13.15,52.82v7.21q0,36.42-13.15,52.73T464.9,839.9Zm-.73-25.24h1.63q13.51,0,18.29-11.35t4.78-32.45v-7.21q0-21.09-4.78-32.45T465.8,719.84h-1.63q-13.51,0-18.38,11.36t-4.87,32.45v7.21q0,21.09,4.87,32.45T464.17,814.66Z"/><path class="cls-2" d="M630.38,837.92,610,730.3,589.64,837.92H552.32L529.07,697h30.46l13.52,101.13L592,697h36.23l18.93,101.13L660.66,697h30.46l-23.25,141Z"/></g></svg>